<svg xmlns="http://www.w3.org/2000/svg" xmlns:xlink="http://www.w3.org/1999/xlink" width="2000" zoomAndPan="magnify" viewBox="0 0 1500 1499.999933" height="2000" preserveAspectRatio="xMidYMid meet" version="1.0"><defs><g/><clipPath id="b01e7b28e5"><path d="M 27.09375 27.09375 L 1472.90625 27.09375 L 1472.90625 1472.90625 L 27.09375 1472.90625 Z M 27.09375 27.09375 " clip-rule="nonzero"/></clipPath><clipPath id="72df8cae95"><path d="M 750 27.09375 C 350.75 27.09375 27.09375 350.75 27.09375 750 C 27.09375 1149.25 350.75 1472.90625 750 1472.90625 C 1149.25 1472.90625 1472.90625 1149.25 1472.90625 750 C 1472.90625 350.75 1149.25 27.09375 750 27.09375 Z M 750 27.09375 " clip-rule="nonzero"/></clipPath><clipPath id="4a41f5eae3"><path d="M 0.09375 0.09375 L 1445.90625 0.09375 L 1445.90625 1445.90625 L 0.09375 1445.90625 Z M 0.09375 0.09375 " clip-rule="nonzero"/></clipPath><clipPath id="9af4ddf27b"><path d="M 723 0.09375 C 323.75 0.09375 0.09375 323.75 0.09375 723 C 0.09375 1122.25 323.75 1445.90625 723 1445.90625 C 1122.25 1445.90625 1445.90625 1122.25 1445.90625 723 C 1445.90625 323.75 1122.25 0.09375 723 0.09375 Z M 723 0.09375 " clip-rule="nonzero"/></clipPath><clipPath id="ef995a75c4"><rect x="0" width="1446" y="0" height="1446"/></clipPath><clipPath id="e3afe40f26"><path d="M 440.097656 537.925781 L 1059.902344 537.925781 L 1059.902344 1157.730469 L 440.097656 1157.730469 Z M 440.097656 537.925781 " clip-rule="nonzero"/></clipPath><clipPath id="345fef219a"><path d="M 750 537.925781 C 578.847656 537.925781 440.097656 676.675781 440.097656 847.828125 C 440.097656 1018.984375 578.847656 1157.730469 750 1157.730469 C 921.152344 1157.730469 1059.902344 1018.984375 1059.902344 847.828125 C 1059.902344 676.675781 921.152344 537.925781 750 537.925781 Z M 750 537.925781 " clip-rule="nonzero"/></clipPath><clipPath id="455ed582fc"><path d="M 0.0976562 0.925781 L 619.902344 0.925781 L 619.902344 620.730469 L 0.0976562 620.730469 Z M 0.0976562 0.925781 " clip-rule="nonzero"/></clipPath><clipPath id="7e677f5396"><path d="M 310 0.925781 C 138.847656 0.925781 0.0976562 139.675781 0.0976562 310.828125 C 0.0976562 481.984375 138.847656 620.730469 310 620.730469 C 481.152344 620.730469 619.902344 481.984375 619.902344 310.828125 C 619.902344 139.675781 481.152344 0.925781 310 0.925781 Z M 310 0.925781 " clip-rule="nonzero"/></clipPath><clipPath id="c74b27ed98"><rect x="0" width="620" y="0" height="621"/></clipPath><clipPath id="c42187b4f5"><path d="M 98 356.804688 L 1402 356.804688 L 1402 1157.804688 L 98 1157.804688 Z M 98 356.804688 " clip-rule="nonzero"/></clipPath><clipPath id="8975ffdfd1"><path d="M 516.960938 614.789062 L 983.039062 614.789062 L 983.039062 1080.867188 L 516.960938 1080.867188 Z M 516.960938 614.789062 " clip-rule="nonzero"/></clipPath><clipPath id="8582b33833"><path d="M 750 614.789062 C 621.296875 614.789062 516.960938 719.125 516.960938 847.828125 C 516.960938 976.535156 621.296875 1080.867188 750 1080.867188 C 878.703125 1080.867188 983.039062 976.535156 983.039062 847.828125 C 983.039062 719.125 878.703125 614.789062 750 614.789062 Z M 750 614.789062 " clip-rule="nonzero"/></clipPath><clipPath id="04a4cb183f"><path d="M 0.960938 0.789062 L 467.039062 0.789062 L 467.039062 466.867188 L 0.960938 466.867188 Z M 0.960938 0.789062 " clip-rule="nonzero"/></clipPath><clipPath id="bceefb3bcd"><path d="M 234 0.789062 C 105.296875 0.789062 0.960938 105.125 0.960938 233.828125 C 0.960938 362.535156 105.296875 466.867188 234 466.867188 C 362.703125 466.867188 467.039062 362.535156 467.039062 233.828125 C 467.039062 105.125 362.703125 0.789062 234 0.789062 Z M 234 0.789062 " clip-rule="nonzero"/></clipPath><clipPath id="66d51be8ff"><rect x="0" width="468" y="0" height="467"/></clipPath><clipPath id="664e18be95"><rect x="0" width="500" y="0" height="152"/></clipPath><clipPath id="e2169f7a1d"><rect x="0" width="344" y="0" height="237"/></clipPath></defs><rect x="-150" width="1800" fill="#ffffff" y="-149.999993" height="1799.99992" fill-opacity="1"/><rect x="-150" width="1800" fill="#ffffff" y="-149.999993" height="1799.99992" fill-opacity="1"/><g clip-path="url(#b01e7b28e5)"><g clip-path="url(#72df8cae95)"><g transform="matrix(1, 0, 0, 1, 27, 27)"><g clip-path="url(#ef995a75c4)"><g clip-path="url(#4a41f5eae3)"><g clip-path="url(#9af4ddf27b)"><path fill="#e8e5de" d="M 0.09375 0.09375 L 1445.90625 0.09375 L 1445.90625 1445.90625 L 0.09375 1445.90625 Z M 0.09375 0.09375 " fill-opacity="1" fill-rule="nonzero"/></g></g></g></g></g></g><g clip-path="url(#e3afe40f26)"><g clip-path="url(#345fef219a)"><g transform="matrix(1, 0, 0, 1, 440, 537)"><g clip-path="url(#c74b27ed98)"><g clip-path="url(#455ed582fc)"><g clip-path="url(#7e677f5396)"><path fill="#e8e5de" d="M 0.0976562 0.925781 L 619.902344 0.925781 L 619.902344 620.730469 L 0.0976562 620.730469 Z M 0.0976562 0.925781 " fill-opacity="1" fill-rule="nonzero"/></g></g></g></g></g></g><g clip-path="url(#c42187b4f5)"><path fill="#d8c69d" d="M 750.648438 569.824219 C 903.105469 569.824219 1026.847656 693.566406 1026.847656 846.023438 C 1026.847656 998.480469 903.105469 1122.21875 750.648438 1122.21875 C 598.191406 1122.21875 474.453125 998.480469 474.453125 846.023438 C 474.453125 693.566406 598.191406 569.824219 750.648438 569.824219 Z M 750.648438 534.324219 C 922.683594 534.324219 1062.351562 673.988281 1062.351562 846.023438 C 1062.351562 1018.058594 922.945312 1157.722656 750.648438 1157.722656 C 578.613281 1157.722656 438.949219 1018.320312 438.949219 846.023438 C 438.949219 673.988281 578.613281 534.324219 750.648438 534.324219 Z M 1401.984375 682.339844 C 1389.972656 598.542969 1317.402344 533.539062 1230.46875 533.539062 L 976.460938 533.539062 C 984.03125 544.503906 991.082031 555.988281 997.085938 568 L 1230.730469 568 C 1297.300781 568 1353.425781 615.511719 1366.742188 678.425781 C 1378.75 679.207031 1390.496094 680.511719 1401.984375 682.339844 Z M 270.828125 568 L 504.472656 568 C 510.480469 555.988281 517.265625 544.503906 525.097656 533.539062 L 270.828125 533.539062 C 179.460938 533.539062 104.015625 605.070312 98.011719 694.871094 L 132.46875 694.871094 C 138.734375 624.125 198.515625 568 270.828125 568 Z M 281.792969 471.929688 L 376.035156 471.929688 L 376.035156 499.082031 C 384.128906 499.082031 391.960938 499.863281 399.792969 500.644531 L 399.792969 448.433594 L 258.300781 448.433594 L 258.300781 499.339844 L 282.054688 499.339844 L 282.054688 471.929688 Z M 1004.394531 499.082031 L 991.082031 466.449219 C 984.292969 450 967.585938 402.230469 951.664062 393.351562 C 949.050781 392.046875 946.441406 391.523438 943.570312 391.523438 L 557.730469 391.523438 C 554.859375 391.523438 552.246094 392.046875 549.636719 393.351562 C 533.710938 402.230469 517.003906 450 510.21875 466.449219 L 496.902344 499.339844 L 459.574219 499.339844 L 478.109375 453.394531 C 498.210938 404.316406 513.871094 356.804688 557.46875 356.804688 L 943.308594 356.804688 C 986.90625 356.804688 1002.566406 404.054688 1022.667969 453.394531 L 1041.464844 499.339844 L 1004.394531 499.339844 Z M 1095.503906 602.195312 L 1095.503906 667.460938 L 1212.71875 667.460938 L 1212.71875 602.195312 Z M 1116.128906 622.820312 L 1192.355469 622.820312 L 1192.355469 646.835938 L 1116.128906 646.835938 Z M 1116.128906 622.820312 " fill-opacity="1" fill-rule="evenodd"/></g><g clip-path="url(#8975ffdfd1)"><g clip-path="url(#8582b33833)"><g transform="matrix(1, 0, 0, 1, 516, 614)"><g clip-path="url(#66d51be8ff)"><g clip-path="url(#04a4cb183f)"><g clip-path="url(#bceefb3bcd)"><path fill="#d8c69d" d="M 0.960938 0.789062 L 467.039062 0.789062 L 467.039062 466.867188 L 0.960938 466.867188 Z M 0.960938 0.789062 " fill-opacity="1" fill-rule="nonzero"/></g></g></g></g></g></g><g transform="matrix(1, 0, 0, 1, 500, 396)"><g clip-path="url(#664e18be95)"><g fill="#000000" fill-opacity="1"><g transform="translate(36.909277, 135.450699)"><g><path d="M -3.84375 -26.484375 L 5.984375 -32.515625 C 8.429688 -34.015625 9.9375 -36.078125 10.5 -38.703125 C 11.09375 -41.359375 10.625 -43.925781 9.09375 -46.40625 C 7.570312 -48.894531 5.5625 -50.460938 3.0625 -51.109375 C 0.550781 -51.722656 -1.984375 -51.242188 -4.546875 -49.671875 L -14.375 -43.640625 Z M 13.53125 -48.96875 C 15.800781 -45.269531 16.378906 -41.398438 15.265625 -37.359375 C 14.160156 -33.378906 11.722656 -30.226562 7.953125 -27.90625 L -1.25 -22.265625 L 9.015625 -5.53125 L 4.65625 -2.859375 L -21.28125 -45.140625 L -7.71875 -53.453125 C -3.988281 -55.742188 -0.09375 -56.515625 3.96875 -55.765625 C 8.0625 -54.960938 11.25 -52.695312 13.53125 -48.96875 Z M 13.53125 -48.96875 "/></g></g></g><g fill="#000000" fill-opacity="1"><g transform="translate(98.534104, 101.607229)"><g><path d="M 9.765625 -4.046875 L 5.046875 -2.09375 L -13.953125 -47.921875 L -9.234375 -49.875 Z M 9.765625 -4.046875 "/></g></g></g><g fill="#000000" fill-opacity="1"><g transform="translate(142.801332, 84.466573)"><g><path d="M 46.515625 -25.828125 C 45.734375 -20.785156 43.613281 -16.40625 40.15625 -12.6875 C 36.65625 -8.875 32.441406 -6.425781 27.515625 -5.34375 C 20.816406 -3.851562 14.546875 -5.054688 8.703125 -8.953125 C 2.972656 -12.753906 -0.640625 -18.054688 -2.140625 -24.859375 C -2.890625 -28.222656 -2.984375 -31.566406 -2.421875 -34.890625 C -1.847656 -38.148438 -0.71875 -41.15625 0.96875 -43.90625 C 4.625 -49.90625 9.800781 -53.648438 16.5 -55.140625 C 21.425781 -56.222656 26.242188 -55.8125 30.953125 -53.90625 C 35.671875 -51.96875 39.441406 -48.894531 42.265625 -44.6875 L 36.765625 -43.484375 C 33.097656 -47.703125 28.507812 -50.019531 23 -50.4375 C 21.175781 -50.539062 19.144531 -50.34375 16.90625 -49.84375 C 14.675781 -49.351562 12.515625 -48.328125 10.421875 -46.765625 C 8.335938 -45.160156 6.640625 -43.265625 5.328125 -41.078125 C 2.472656 -36.410156 1.644531 -31.375 2.84375 -25.96875 C 4.03125 -20.59375 6.90625 -16.394531 11.46875 -13.375 C 16.09375 -10.25 21.066406 -9.28125 26.390625 -10.46875 C 29.992188 -11.257812 33.101562 -12.945312 35.71875 -15.53125 C 38.289062 -18.082031 40.054688 -21.113281 41.015625 -24.625 Z M 46.515625 -25.828125 "/></g></g></g><g fill="#000000" fill-opacity="1"><g transform="translate(225.560921, 70.284017)"><g><path d="M 0.4375 -45.03125 L 0.328125 -49.765625 L 12.375 -50.03125 L 17.484375 -50.15625 L 29.5 -50.421875 L 29.609375 -45.6875 L 17.59375 -45.421875 L 18.609375 -0.5625 L 13.5 -0.4375 L 12.484375 -45.296875 Z M 0.4375 -45.03125 "/></g></g></g><g fill="#000000" fill-opacity="1"><g transform="translate(288.760393, 71.124922)"><g><path d="M 43.484375 -9.46875 C 42.609375 -4.1875 40.191406 -0.296875 36.234375 2.203125 C 32.492188 4.546875 27.910156 5.269531 22.484375 4.375 C 17.023438 3.46875 12.898438 1.304688 10.109375 -2.109375 C 7.148438 -5.742188 6.109375 -10.203125 6.984375 -15.484375 L 12.390625 -48.234375 L 17.4375 -47.40625 L 11.90625 -13.9375 C 11.300781 -10.226562 12.175781 -7.175781 14.53125 -4.78125 C 16.550781 -2.664062 19.476562 -1.289062 23.3125 -0.65625 C 29.320312 0.332031 33.6875 -1.019531 36.40625 -4.71875 C 37.351562 -5.976562 37.988281 -7.597656 38.3125 -9.578125 L 43.84375 -43.046875 L 48.890625 -42.21875 Z M 43.484375 -9.46875 "/></g></g></g><g fill="#000000" fill-opacity="1"><g transform="translate(363.694457, 86.850418)"><g><path d="M 18.515625 -19.234375 L 29.3125 -15.1875 C 31.988281 -14.175781 34.539062 -14.257812 36.96875 -15.4375 C 39.4375 -16.632812 41.1875 -18.597656 42.21875 -21.328125 C 43.226562 -24.015625 43.222656 -26.5625 42.203125 -28.96875 C 41.160156 -31.320312 39.234375 -33.03125 36.421875 -34.09375 L 25.625 -38.140625 Z M 46.9375 -19.390625 C 45.414062 -15.335938 42.71875 -12.507812 38.84375 -10.90625 C 35.40625 -9.488281 31.84375 -9.347656 28.15625 -10.484375 L 35.515625 13.328125 L 29.09375 10.921875 L 22.390625 -12.546875 L 16.796875 -14.65625 L 9.90625 3.71875 L 5.125 1.921875 L 22.5625 -44.515625 L 37.453125 -38.921875 C 41.597656 -37.367188 44.585938 -34.765625 46.421875 -31.109375 C 48.273438 -27.304688 48.445312 -23.398438 46.9375 -19.390625 Z M 46.9375 -19.390625 "/></g></g></g><g fill="#000000" fill-opacity="1"><g transform="translate(428.799055, 114.385101)"><g><path d="M 29.828125 18.203125 L 4.671875 2.84375 L 30.515625 -39.5 L 55.671875 -24.140625 L 53.203125 -20.09375 L 32.40625 -32.78125 L 23.21875 -17.71875 L 43.390625 -5.40625 L 40.875 -1.28125 L 20.703125 -13.59375 L 11.5 1.46875 L 32.296875 14.15625 Z M 29.828125 18.203125 "/></g></g></g></g></g><g transform="matrix(1, 0, 0, 1, 583, 735)"><g clip-path="url(#e2169f7a1d)"><g fill="#000000" fill-opacity="1"><g transform="translate(0.41168, 141.170533)"><g><path d="M 181.46875 -125.078125 C 181.75 -120.347656 181.503906 -114.09375 180.734375 -106.3125 C 179.960938 -98.53125 178.828125 -89.710938 177.328125 -79.859375 C 175.828125 -70.003906 174.085938 -59.59375 172.109375 -48.625 C 170.128906 -37.65625 168.125 -26.617188 166.09375 -15.515625 C 164.738281 -7.773438 163.335938 0.125 161.890625 8.1875 C 160.441406 16.257812 159.113281 23.988281 157.90625 31.375 C 156.695312 38.769531 155.753906 45.289062 155.078125 50.9375 C 154.398438 56.59375 154.113281 60.820312 154.21875 63.625 C 154.601562 62.945312 155.035156 62.222656 155.515625 61.453125 C 155.898438 60.773438 156.453125 60.335938 157.171875 60.140625 C 157.898438 59.953125 158.601562 60.050781 159.28125 60.4375 C 159.957031 60.820312 160.390625 61.375 160.578125 62.09375 C 160.773438 62.820312 160.679688 63.523438 160.296875 64.203125 C 159.140625 66.140625 157.882812 67.90625 156.53125 69.5 C 155.175781 71.09375 153.582031 71.597656 151.75 71.015625 C 150.6875 70.535156 149.890625 69.5 149.359375 67.90625 C 148.828125 66.3125 148.632812 63.703125 148.78125 60.078125 C 148.925781 56.453125 149.429688 51.425781 150.296875 45 C 151.171875 38.570312 152.453125 30.332031 154.140625 20.28125 C 155.828125 10.238281 158.023438 -1.976562 160.734375 -16.375 C 162.566406 -27.007812 164.445312 -37.734375 166.375 -48.546875 C 168.3125 -59.367188 170.050781 -69.707031 171.59375 -79.5625 C 173.144531 -89.425781 174.332031 -98.269531 175.15625 -106.09375 C 175.976562 -113.914062 176.242188 -120.097656 175.953125 -124.640625 C 175.765625 -127.441406 175.378906 -129.492188 174.796875 -130.796875 C 174.210938 -132.109375 173.632812 -132.8125 173.0625 -132.90625 C 173.0625 -132.90625 173.007812 -132.90625 172.90625 -132.90625 C 171.945312 -132.90625 170.257812 -131.863281 167.84375 -129.78125 C 165.425781 -127.707031 162.40625 -124.015625 158.78125 -118.703125 C 155.15625 -113.390625 150.878906 -105.851562 145.953125 -96.09375 C 140.929688 -86.039062 134.695312 -71.710938 127.25 -53.109375 C 119.8125 -34.515625 111.890625 -10.628906 103.484375 18.546875 C 103.003906 20.285156 101.894531 20.960938 100.15625 20.578125 C 98.414062 20.191406 97.691406 19.128906 97.984375 17.390625 C 104.742188 -22.421875 108.363281 -52.328125 108.84375 -72.328125 C 109.039062 -78.503906 108.945312 -83.359375 108.5625 -86.890625 C 108.175781 -90.421875 107.691406 -92.984375 107.109375 -94.578125 C 106.523438 -96.171875 106.015625 -97.179688 105.578125 -97.609375 C 105.148438 -98.046875 104.890625 -98.3125 104.796875 -98.40625 C 104.691406 -98.40625 104.226562 -98.257812 103.40625 -97.96875 C 102.59375 -97.6875 101.316406 -96.722656 99.578125 -95.078125 C 97.835938 -93.429688 95.585938 -90.578125 92.828125 -86.515625 C 90.078125 -82.460938 86.769531 -76.71875 82.90625 -69.28125 C 79.039062 -61.84375 74.5 -52.179688 69.28125 -40.296875 C 63.96875 -28.023438 58.628906 -14.757812 53.265625 -0.5 C 47.898438 13.75 42.753906 28.359375 37.828125 43.328125 C 32.898438 58.304688 28.40625 72.992188 24.34375 87.390625 C 24.34375 87.390625 24.34375 87.441406 24.34375 87.546875 C 23.664062 89.285156 22.960938 90.828125 22.234375 92.171875 C 21.515625 93.523438 20.578125 94.203125 19.421875 94.203125 C 19.128906 94.203125 18.789062 94.15625 18.40625 94.0625 C 17.050781 93.582031 16.347656 92.546875 16.296875 90.953125 C 16.253906 89.359375 16.472656 86.867188 16.953125 83.484375 C 17.628906 78.941406 18.789062 72.421875 20.4375 63.921875 C 23.332031 49.328125 27.582031 29.320312 33.1875 3.90625 C 35.695312 -7.78125 38.234375 -19.300781 40.796875 -30.65625 C 43.359375 -42.007812 45.75 -52.539062 47.96875 -62.25 C 50.195312 -71.957031 52.128906 -80.289062 53.765625 -87.25 C 55.410156 -94.207031 56.570312 -99.085938 57.25 -101.890625 C 58.789062 -108.554688 59.585938 -113.601562 59.640625 -117.03125 C 59.691406 -120.46875 59.398438 -122.859375 58.765625 -124.203125 C 58.140625 -125.554688 57.632812 -126.378906 57.25 -126.671875 C 56.1875 -127.347656 54.566406 -127.25 52.390625 -126.375 C 50.222656 -125.507812 47.738281 -124.015625 44.9375 -121.890625 C 41.164062 -118.992188 37.296875 -115.222656 33.328125 -110.578125 C 29.367188 -105.941406 25.625 -100.867188 22.09375 -95.359375 C 18.570312 -89.859375 15.578125 -84.28125 13.109375 -78.625 C 10.648438 -72.976562 8.960938 -67.546875 8.046875 -62.328125 C 7.128906 -57.109375 7.347656 -52.515625 8.703125 -48.546875 C 11.503906 -40.242188 19.519531 -35.992188 32.75 -35.796875 C 33.53125 -35.796875 34.1875 -35.503906 34.71875 -34.921875 C 35.25 -34.347656 35.515625 -33.675781 35.515625 -32.90625 C 35.515625 -32.125 35.222656 -31.46875 34.640625 -30.9375 C 34.054688 -30.40625 33.425781 -30.140625 32.75 -30.140625 C 32.75 -30.140625 32.722656 -30.140625 32.671875 -30.140625 C 32.628906 -30.140625 32.609375 -30.140625 32.609375 -30.140625 C 29.035156 -30.242188 25.265625 -30.753906 21.296875 -31.671875 C 17.335938 -32.585938 13.738281 -34.226562 10.5 -36.59375 C 7.269531 -38.957031 4.878906 -42.363281 3.328125 -46.8125 C 2.171875 -50.382812 1.710938 -54.148438 1.953125 -58.109375 C 2.191406 -62.078125 2.890625 -66.015625 4.046875 -69.921875 C 5.210938 -73.835938 6.546875 -77.507812 8.046875 -80.9375 C 9.546875 -84.375 10.96875 -87.347656 12.3125 -89.859375 C 16.28125 -97.109375 20.875 -104.015625 26.09375 -110.578125 C 31.3125 -117.148438 36.476562 -122.421875 41.59375 -126.390625 C 46.519531 -130.148438 50.476562 -132.148438 53.46875 -132.390625 C 56.46875 -132.640625 58.742188 -132.28125 60.296875 -131.3125 C 65.898438 -127.738281 66.671875 -117.5 62.609375 -100.59375 C 61.546875 -96.144531 60.171875 -90.269531 58.484375 -82.96875 C 56.796875 -75.675781 54.910156 -67.441406 52.828125 -58.265625 C 50.753906 -49.085938 48.554688 -39.398438 46.234375 -29.203125 C 43.910156 -19.003906 41.613281 -8.765625 39.34375 1.515625 C 37.070312 11.804688 34.898438 21.757812 32.828125 31.375 C 30.753906 40.988281 28.941406 49.757812 27.390625 57.6875 C 31.066406 45.988281 34.929688 34.296875 38.984375 22.609375 C 43.046875 10.921875 47.203125 -0.425781 51.453125 -11.4375 C 55.703125 -22.457031 59.953125 -32.847656 64.203125 -42.609375 C 69.804688 -55.460938 74.734375 -65.875 78.984375 -73.84375 C 83.242188 -81.8125 86.914062 -87.921875 90 -92.171875 C 93.09375 -96.429688 95.703125 -99.378906 97.828125 -101.015625 C 99.953125 -102.660156 101.664062 -103.578125 102.96875 -103.765625 C 104.28125 -103.960938 105.320312 -103.96875 106.09375 -103.78125 C 107.445312 -103.488281 108.75 -102.617188 110 -101.171875 C 111.257812 -99.722656 112.300781 -97.28125 113.125 -93.84375 C 113.945312 -90.414062 114.429688 -85.582031 114.578125 -79.34375 C 114.722656 -73.113281 114.382812 -65.117188 113.5625 -55.359375 C 112.738281 -45.609375 111.359375 -33.628906 109.421875 -19.421875 C 115.316406 -37.296875 121.285156 -53.597656 127.328125 -68.328125 C 133.367188 -83.066406 139.238281 -95.726562 144.9375 -106.3125 C 150.632812 -116.894531 155.945312 -124.988281 160.875 -130.59375 C 165.800781 -136.195312 170.101562 -138.804688 173.78125 -138.421875 C 178.320312 -137.929688 180.882812 -133.484375 181.46875 -125.078125 Z M 181.46875 -125.078125 "/></g></g></g><g fill="#000000" fill-opacity="1"><g transform="translate(184.041004, 141.170533)"><g><path d="M 155.234375 -139.859375 C 156.003906 -139.859375 156.65625 -139.59375 157.1875 -139.0625 C 157.71875 -138.53125 157.984375 -137.878906 157.984375 -137.109375 C 157.984375 -136.335938 157.71875 -135.6875 157.1875 -135.15625 C 156.65625 -134.625 156.003906 -134.359375 155.234375 -134.359375 C 147.785156 -134.265625 139.28125 -133.660156 129.71875 -132.546875 C 120.15625 -131.429688 110.273438 -129.976562 100.078125 -128.1875 C 89.878906 -126.40625 80.046875 -124.304688 70.578125 -121.890625 C 69.128906 -115.804688 67.460938 -109.113281 65.578125 -101.8125 C 63.703125 -94.519531 61.695312 -86.910156 59.5625 -78.984375 C 58.113281 -73.191406 56.566406 -67.175781 54.921875 -60.9375 C 53.285156 -54.707031 51.691406 -48.453125 50.140625 -42.171875 C 56.816406 -43.910156 63.535156 -45.578125 70.296875 -47.171875 C 77.054688 -48.765625 83.40625 -50.164062 89.34375 -51.375 C 95.289062 -52.582031 100.414062 -53.5 104.71875 -54.125 C 109.019531 -54.757812 112.039062 -55.03125 113.78125 -54.9375 C 114.550781 -54.832031 115.175781 -54.515625 115.65625 -53.984375 C 116.144531 -53.453125 116.390625 -52.800781 116.390625 -52.03125 C 116.285156 -51.257812 115.96875 -50.609375 115.4375 -50.078125 C 114.90625 -49.546875 114.253906 -49.28125 113.484375 -49.28125 C 111.554688 -49.46875 107.882812 -49.101562 102.46875 -48.1875 C 97.0625 -47.269531 90.585938 -46.015625 83.046875 -44.421875 C 75.515625 -42.828125 67.546875 -40.96875 59.140625 -38.84375 C 55.460938 -37.875 51.929688 -36.957031 48.546875 -36.09375 C 46.035156 -25.84375 43.71875 -15.910156 41.59375 -6.296875 C 39.46875 3.304688 37.726562 12.191406 36.375 20.359375 C 35.019531 28.523438 34.296875 35.410156 34.203125 41.015625 C 34.203125 43.335938 34.421875 45.679688 34.859375 48.046875 C 35.296875 50.410156 36.285156 51.929688 37.828125 52.609375 C 39.660156 53.378906 42.097656 53.085938 45.140625 51.734375 C 48.191406 50.390625 51.597656 48.316406 55.359375 45.515625 C 59.128906 42.710938 62.992188 39.570312 66.953125 36.09375 C 70.921875 32.613281 74.765625 29.082031 78.484375 25.5 C 82.203125 21.925781 85.507812 18.738281 88.40625 15.9375 C 89.1875 15.164062 89.960938 14.414062 90.734375 13.6875 C 91.503906 12.96875 92.226562 12.222656 92.90625 11.453125 L 95.375 9.125 C 96.820312 7.78125 98.21875 6.453125 99.5625 5.140625 C 100.914062 3.835938 102.128906 2.703125 103.203125 1.734375 C 104.648438 0.378906 106 -0.703125 107.25 -1.515625 C 108.507812 -2.335938 109.671875 -2.21875 110.734375 -1.15625 C 111.984375 -0.09375 112.125 1.304688 111.15625 3.046875 C 110.195312 4.785156 108.316406 7.539062 105.515625 11.3125 C 105.035156 11.976562 104.40625 12.359375 103.625 12.453125 C 102.851562 12.554688 102.175781 12.367188 101.59375 11.890625 C 101.40625 11.785156 101.210938 11.640625 101.015625 11.453125 C 100.734375 11.742188 100.445312 12.03125 100.15625 12.3125 C 99.863281 12.601562 99.570312 12.894531 99.28125 13.1875 L 96.8125 15.515625 C 96.132812 16.179688 95.410156 16.898438 94.640625 17.671875 C 93.867188 18.453125 93.097656 19.179688 92.328125 19.859375 C 85.078125 26.910156 78.210938 33.359375 71.734375 39.203125 C 65.265625 45.046875 59.300781 49.734375 53.84375 53.265625 C 48.382812 56.796875 43.675781 58.5625 39.71875 58.5625 C 38.164062 58.5625 36.8125 58.269531 35.65625 57.6875 C 30.820312 55.65625 28.503906 50.097656 28.703125 41.015625 C 28.796875 35.316406 29.46875 28.53125 30.71875 20.65625 C 31.976562 12.78125 33.625 4.15625 35.65625 -5.21875 C 37.6875 -14.59375 39.910156 -24.300781 42.328125 -34.34375 C 32.367188 -31.539062 24.632812 -29.101562 19.125 -27.03125 C 13.625 -24.957031 10.34375 -23.4375 9.28125 -22.46875 C 8.789062 -21.976562 8.160156 -21.734375 7.390625 -21.734375 C 6.617188 -21.734375 5.941406 -22.023438 5.359375 -22.609375 C 4.878906 -23.085938 4.640625 -23.710938 4.640625 -24.484375 C 4.640625 -25.265625 4.925781 -25.945312 5.5 -26.53125 C 6.664062 -27.6875 9.109375 -29.035156 12.828125 -30.578125 C 16.546875 -32.128906 21.109375 -33.75 26.515625 -35.4375 C 31.929688 -37.125 37.734375 -38.835938 43.921875 -40.578125 C 45.554688 -47.242188 47.269531 -53.9375 49.0625 -60.65625 C 50.851562 -67.375 52.566406 -73.96875 54.203125 -80.4375 C 56.140625 -87.6875 57.976562 -94.691406 59.71875 -101.453125 C 61.457031 -108.222656 63.050781 -114.503906 64.5 -120.296875 C 56 -117.972656 48.242188 -115.53125 41.234375 -112.96875 C 34.234375 -110.414062 28.507812 -107.785156 24.0625 -105.078125 C 19.613281 -102.367188 17.003906 -99.664062 16.234375 -96.96875 C 16.035156 -96.582031 16.03125 -95.710938 16.21875 -94.359375 C 16.414062 -93.003906 18.015625 -91.3125 21.015625 -89.28125 C 21.597656 -88.800781 21.960938 -88.195312 22.109375 -87.46875 C 22.253906 -86.738281 22.128906 -86.039062 21.734375 -85.375 C 21.160156 -84.59375 20.390625 -84.203125 19.421875 -84.203125 C 18.835938 -84.203125 18.304688 -84.347656 17.828125 -84.640625 C 13.960938 -87.253906 11.710938 -89.789062 11.078125 -92.25 C 10.453125 -94.71875 10.382812 -96.820312 10.875 -98.5625 C 11.832031 -101.65625 14.078125 -104.550781 17.609375 -107.25 C 21.140625 -109.957031 25.535156 -112.46875 30.796875 -114.78125 C 36.066406 -117.101562 41.742188 -119.253906 47.828125 -121.234375 C 53.910156 -123.222656 59.953125 -124.988281 65.953125 -126.53125 C 66.523438 -128.945312 67.003906 -131.023438 67.390625 -132.765625 C 67.492188 -133.535156 67.878906 -134.113281 68.546875 -134.5 C 69.222656 -134.882812 69.898438 -135.03125 70.578125 -134.9375 C 71.359375 -134.738281 71.960938 -134.328125 72.390625 -133.703125 C 72.828125 -133.078125 72.953125 -132.378906 72.765625 -131.609375 C 72.566406 -130.640625 72.320312 -129.429688 72.03125 -127.984375 C 81.40625 -130.296875 91.140625 -132.320312 101.234375 -134.0625 C 111.335938 -135.800781 121.050781 -137.175781 130.375 -138.1875 C 139.695312 -139.207031 147.984375 -139.765625 155.234375 -139.859375 Z M 155.234375 -139.859375 "/></g></g></g></g></g></svg>