<svg xmlns="http://www.w3.org/2000/svg" xmlns:xlink="http://www.w3.org/1999/xlink" width="2000" zoomAndPan="magnify" viewBox="0 0 1500 1499.999933" height="2000" preserveAspectRatio="xMidYMid meet" version="1.0"><defs><clipPath id="faabc44b57"><path d="M 43.574219 43.574219 L 1456.425781 43.574219 L 1456.425781 1456.425781 L 43.574219 1456.425781 Z M 43.574219 43.574219 " clip-rule="nonzero"/></clipPath><clipPath id="87a5679972"><path d="M 750 43.574219 C 359.851562 43.574219 43.574219 359.851562 43.574219 750 C 43.574219 1140.148438 359.851562 1456.425781 750 1456.425781 C 1140.148438 1456.425781 1456.425781 1140.148438 1456.425781 750 C 1456.425781 359.851562 1140.148438 43.574219 750 43.574219 Z M 750 43.574219 " clip-rule="nonzero"/></clipPath><clipPath id="a1adc534fa"><path d="M 0.574219 0.574219 L 1413.425781 0.574219 L 1413.425781 1413.425781 L 0.574219 1413.425781 Z M 0.574219 0.574219 " clip-rule="nonzero"/></clipPath><clipPath id="1a147f1602"><path d="M 707 0.574219 C 316.851562 0.574219 0.574219 316.851562 0.574219 707 C 0.574219 1097.148438 316.851562 1413.425781 707 1413.425781 C 1097.148438 1413.425781 1413.425781 1097.148438 1413.425781 707 C 1413.425781 316.851562 1097.148438 0.574219 707 0.574219 Z M 707 0.574219 " clip-rule="nonzero"/></clipPath><clipPath id="700199d0c7"><rect x="0" width="1414" y="0" height="1414"/></clipPath><clipPath id="c21621567f"><path d="M 430.402344 523.796875 L 1069.597656 523.796875 L 1069.597656 1162.992188 L 430.402344 1162.992188 Z M 430.402344 523.796875 " clip-rule="nonzero"/></clipPath><clipPath id="bc858a8d90"><path d="M 750 523.796875 C 573.492188 523.796875 430.402344 666.886719 430.402344 843.394531 C 430.402344 1019.902344 573.492188 1162.992188 750 1162.992188 C 926.507812 1162.992188 1069.597656 1019.902344 1069.597656 843.394531 C 1069.597656 666.886719 926.507812 523.796875 750 523.796875 Z M 750 523.796875 " clip-rule="nonzero"/></clipPath><clipPath id="7dbcd70561"><path d="M 0.402344 0.796875 L 639.597656 0.796875 L 639.597656 639.992188 L 0.402344 639.992188 Z M 0.402344 0.796875 " clip-rule="nonzero"/></clipPath><clipPath id="8be3b0cce0"><path d="M 320 0.796875 C 143.492188 0.796875 0.402344 143.886719 0.402344 320.394531 C 0.402344 496.902344 143.492188 639.992188 320 639.992188 C 496.507812 639.992188 639.597656 496.902344 639.597656 320.394531 C 639.597656 143.886719 496.507812 0.796875 320 0.796875 Z M 320 0.796875 " clip-rule="nonzero"/></clipPath><clipPath id="12c90b6485"><rect x="0" width="640" y="0" height="640"/></clipPath><clipPath id="f75494e206"><path d="M 77.101562 337.007812 L 1422.601562 337.007812 L 1422.601562 1162.757812 L 77.101562 1162.757812 Z M 77.101562 337.007812 " clip-rule="nonzero"/></clipPath><clipPath id="ae8e238f7a"><path d="M 509.671875 603.0625 L 990.328125 603.0625 L 990.328125 1083.722656 L 509.671875 1083.722656 Z M 509.671875 603.0625 " clip-rule="nonzero"/></clipPath><clipPath id="f3e770caa9"><path d="M 750 603.0625 C 617.269531 603.0625 509.671875 710.664062 509.671875 843.394531 C 509.671875 976.125 617.269531 1083.722656 750 1083.722656 C 882.730469 1083.722656 990.328125 976.125 990.328125 843.394531 C 990.328125 710.664062 882.730469 603.0625 750 603.0625 Z M 750 603.0625 " clip-rule="nonzero"/></clipPath><clipPath id="f82c527f77"><path d="M 0.671875 0.0625 L 481.328125 0.0625 L 481.328125 480.722656 L 0.671875 480.722656 Z M 0.671875 0.0625 " clip-rule="nonzero"/></clipPath><clipPath id="4d0d5c2af1"><path d="M 241 0.0625 C 108.269531 0.0625 0.671875 107.664062 0.671875 240.394531 C 0.671875 373.125 108.269531 480.722656 241 480.722656 C 373.730469 480.722656 481.328125 373.125 481.328125 240.394531 C 481.328125 107.664062 373.730469 0.0625 241 0.0625 Z M 241 0.0625 " clip-rule="nonzero"/></clipPath><clipPath id="d25fdba3ea"><rect x="0" width="482" y="0" height="481"/></clipPath></defs><g clip-path="url(#faabc44b57)"><g clip-path="url(#87a5679972)"><g transform="matrix(1, 0, 0, 1, 43, 43)"><g clip-path="url(#700199d0c7)"><g clip-path="url(#a1adc534fa)"><g clip-path="url(#1a147f1602)"><path fill="#e8e5de" d="M 0.574219 0.574219 L 1413.425781 0.574219 L 1413.425781 1413.425781 L 0.574219 1413.425781 Z M 0.574219 0.574219 " fill-opacity="1" fill-rule="nonzero"/></g></g></g></g></g></g><g clip-path="url(#c21621567f)"><g clip-path="url(#bc858a8d90)"><g transform="matrix(1, 0, 0, 1, 430, 523)"><g clip-path="url(#12c90b6485)"><g clip-path="url(#7dbcd70561)"><g clip-path="url(#8be3b0cce0)"><path fill="#e8e5de" d="M 0.402344 0.796875 L 639.597656 0.796875 L 639.597656 639.992188 L 0.402344 639.992188 Z M 0.402344 0.796875 " fill-opacity="1" fill-rule="nonzero"/></g></g></g></g></g></g><g clip-path="url(#f75494e206)"><path fill="#d8c69d" d="M 750.671875 556.695312 C 907.898438 556.695312 1035.507812 684.304688 1035.507812 841.53125 C 1035.507812 998.757812 907.898438 1126.367188 750.671875 1126.367188 C 593.445312 1126.367188 465.835938 998.757812 465.835938 841.53125 C 465.835938 684.304688 593.445312 556.695312 750.671875 556.695312 Z M 750.671875 520.082031 C 928.089844 520.082031 1072.125 664.113281 1072.125 841.53125 C 1072.125 1018.949219 928.359375 1162.980469 750.671875 1162.980469 C 573.253906 1162.980469 429.222656 1019.21875 429.222656 841.53125 C 429.222656 664.113281 573.253906 520.082031 750.671875 520.082031 Z M 1422.382812 672.730469 C 1409.996094 586.308594 1335.152344 519.273438 1245.503906 519.273438 L 983.550781 519.273438 C 991.355469 530.578125 998.625 542.425781 1004.816406 554.808594 L 1245.773438 554.808594 C 1314.421875 554.808594 1372.304688 603.808594 1386.035156 668.691406 C 1398.421875 669.5 1410.535156 670.84375 1422.382812 672.730469 Z M 255.84375 554.808594 L 496.796875 554.808594 C 502.988281 542.425781 509.988281 530.578125 518.066406 519.273438 L 255.84375 519.273438 C 161.613281 519.273438 83.808594 593.039062 77.617188 685.652344 L 113.15625 685.652344 C 119.617188 612.691406 181.269531 554.808594 255.84375 554.808594 Z M 267.148438 455.734375 L 364.339844 455.734375 L 364.339844 483.734375 C 372.683594 483.734375 380.761719 484.542969 388.839844 485.351562 L 388.839844 431.507812 L 242.921875 431.507812 L 242.921875 484.003906 L 267.417969 484.003906 L 267.417969 455.734375 Z M 1012.355469 483.734375 L 998.625 450.082031 C 991.625 433.121094 974.394531 383.855469 957.972656 374.699219 C 955.28125 373.355469 952.589844 372.816406 949.628906 372.816406 L 551.71875 372.816406 C 548.757812 372.816406 546.0625 373.355469 543.371094 374.699219 C 526.949219 383.855469 509.71875 433.121094 502.71875 450.082031 L 488.988281 484.003906 L 450.488281 484.003906 L 469.605469 436.621094 C 490.335938 386.007812 506.488281 337.007812 551.449219 337.007812 L 949.359375 337.007812 C 994.316406 337.007812 1010.472656 385.738281 1031.203125 436.621094 L 1050.585938 484.003906 L 1012.355469 484.003906 Z M 1106.316406 590.078125 L 1106.316406 657.382812 L 1227.195312 657.382812 L 1227.195312 590.078125 Z M 1127.582031 611.347656 L 1206.195312 611.347656 L 1206.195312 636.113281 L 1127.582031 636.113281 Z M 1127.582031 611.347656 " fill-opacity="1" fill-rule="evenodd"/></g><g clip-path="url(#ae8e238f7a)"><g clip-path="url(#f3e770caa9)"><g transform="matrix(1, 0, 0, 1, 509, 603)"><g clip-path="url(#d25fdba3ea)"><g clip-path="url(#f82c527f77)"><g clip-path="url(#4d0d5c2af1)"><path fill="#d8c69d" d="M 0.671875 0.0625 L 481.328125 0.0625 L 481.328125 480.722656 L 0.671875 480.722656 Z M 0.671875 0.0625 " fill-opacity="1" fill-rule="nonzero"/></g></g></g></g></g></g></svg>